<svg xmlns="http://www.w3.org/2000/svg" viewBox="0 0 52.22 64.88"><defs><style>.cls-1{fill:none;stroke:#000;stroke-linecap:round;stroke-linejoin:round;stroke-width:2px;}</style></defs><title>Asset 32</title><g id="Layer_2" data-name="Layer 2"><g id="Layer_2-2" data-name="Layer 2"><path class="cls-1" d="M5.33,4.36V19L2.42,21A3.36,3.36,0,0,0,1,23.76v9H5.33v8.06l-2.91,2A3.34,3.34,0,0,0,1,45.64V60.52a3.36,3.36,0,0,0,3.36,3.36h43.5a3.36,3.36,0,0,0,3.36-3.36V4.36A3.35,3.35,0,0,0,47.86,1H8.69A3.35,3.35,0,0,0,5.33,4.36Z"/><rect class="cls-1" x="9.94" y="47.22" width="32.34" height="9.8" rx="3.14"/><rect class="cls-1" x="10.59" y="4.44" width="5.63" height="10.17" rx="1.85"/><rect class="cls-1" x="20.26" y="4.44" width="5.63" height="10.17" rx="1.85"/><rect class="cls-1" x="29.94" y="4.44" width="5.63" height="10.17" rx="1.85"/><rect class="cls-1" x="39.62" y="4.44" width="5.63" height="10.17" rx="1.85"/></g></g></svg>