<svg xmlns="http://www.w3.org/2000/svg" viewBox="0 0 64.95 34.65"><defs><style>.cls-1{fill:none;stroke:#000;stroke-linecap:round;stroke-linejoin:round;stroke-width:2px;}</style></defs><title>Asset 56</title><g id="Layer_2" data-name="Layer 2"><g id="Layer_2-2" data-name="Layer 2"><path class="cls-1" d="M62.29,13.46a3,3,0,0,1-3-3.34,3.13,3.13,0,0,1,3.16-2.75H64V3.44A2.44,2.44,0,0,0,61.51,1H3.44A2.44,2.44,0,0,0,1,3.44V7.37H2.53a3.14,3.14,0,0,1,3.16,2.75,3,3,0,0,1-3,3.34H1v10a2.45,2.45,0,0,0,2.44,2.45H61.51A2.45,2.45,0,0,0,64,23.47v-10Z"/><rect class="cls-1" x="11.17" y="6.03" width="6.62" height="14.85" rx="2.05"/><rect class="cls-1" x="23.17" y="6.03" width="6.62" height="14.85" rx="2.05"/><rect class="cls-1" x="35.16" y="6.03" width="6.62" height="14.85" rx="2.05"/><rect class="cls-1" x="47.16" y="6.03" width="6.62" height="14.85" rx="2.05"/><path class="cls-1" d="M4.93,25.92H36.56a0,0,0,0,1,0,0v5.3a2.44,2.44,0,0,1-2.44,2.44H7.37a2.44,2.44,0,0,1-2.44-2.44v-5.3A0,0,0,0,1,4.93,25.92Z"/><path class="cls-1" d="M44.72,25.92H60a0,0,0,0,1,0,0v5.3a2.44,2.44,0,0,1-2.44,2.44H47.16a2.44,2.44,0,0,1-2.44-2.44v-5.3A0,0,0,0,1,44.72,25.92Z"/><line class="cls-1" x1="10.06" y1="33.65" x2="10.06" y2="30.09"/><line class="cls-1" x1="15.4" y1="33.65" x2="15.4" y2="30.09"/><line class="cls-1" x1="20.75" y1="33.65" x2="20.75" y2="30.09"/><line class="cls-1" x1="26.09" y1="33.65" x2="26.09" y2="30.09"/><line class="cls-1" x1="31.44" y1="33.65" x2="31.44" y2="30.09"/><line class="cls-1" x1="49.88" y1="33.65" x2="49.88" y2="30.09"/><line class="cls-1" x1="54.86" y1="33.65" x2="54.86" y2="30.09"/></g></g></svg>